<svg xmlns="http://www.w3.org/2000/svg" viewBox="0 0 107.5 107.5"><path style="fill:#fff" d="M0 0h107.5v107.5H0z"/><path d="M50.478 83.594h9.192v-2.879h-9.192v-4.768h10.369v-2.879H47.255v18.33h13.723v-2.88h-10.5v-4.924zM10.023 76.053h5.816v15.345h3.248V76.053h5.811v-2.985H10.023v2.985zM43.293 78.907h-.001v-.053a5.543 5.543 0 0 0-1.517-3.952 7.38 7.38 0 0 0-5.29-1.834H28.31v18.33h3.223v-6.39h4.033l4.504 6.39h3.824l-4.948-6.94a5.503 5.503 0 0 0 4.346-5.551zm-11.759 3.246V76h4.689c2.38 0 3.795 1.075 3.795 3.036v.054c0 1.86-1.466 3.066-3.77 3.066zM86.977 83.594h9.192v-2.879h-9.192v-4.768h10.369v-2.879H83.754v18.33h13.723v-2.88h-10.5v-4.924zM73.663 33.716 53.751 16.102 33.837 33.716 10.023 16.102v51.304h27.565v-5.815h-21.75V28.924l18.108 12.83 19.805-17.505 19.803 17.505 18.108-12.83v32.667h-21.75v5.815h27.565V16.102L73.663 33.716zM88.94 67.752l-1.819 1.144 2.111 2.65 2.669.003-2.961-3.797zM79.79 78.907v-.053a5.544 5.544 0 0 0-1.519-3.952 7.38 7.38 0 0 0-5.288-1.834H64.81v18.33h3.223v-6.39h4.033l4.504 6.39h3.824l-4.953-6.94a5.503 5.503 0 0 0 4.35-5.551zm-11.76 3.248.003-6.154h4.686c2.385 0 3.8 1.074 3.8 3.035v.054c0 1.86-1.468 3.066-3.772 3.066z"/><path d="M65.43 67.335V47.813h-4.448l-7.234 11.236-7.23-11.236H42.07v19.522h4.108V54.602l7.438 11.141h.132l7.506-11.206v12.798h4.176z"/></svg>