<svg viewBox="0 0 81.511 19.345"><path d="M6.776 10.83h1.475V2.435H6.68L4.125 6.404 1.571 2.435H0v8.395h1.451V4.833l2.627 3.935h.047L6.776 4.81v6.02zM12.07 8.803h3.97l.852 2.027h1.56l-3.695-8.455H13.39L9.696 10.83h1.512zm1.98-4.665 1.451 3.358h-2.89zM25.76 8.239l-4.498-5.804h-1.367v8.395h1.451V4.857l4.63 5.973h1.235V2.435H25.76v5.804zM36.427 7.196V2.435h-1.475v4.833c0 1.547-.804 2.327-2.11 2.327-1.32 0-2.124-.827-2.124-2.387V2.435h-1.475v4.833c0 2.435 1.391 3.694 3.574 3.694 2.194 0 3.61-1.259 3.61-3.766zM48.271 2.435h-6.813v1.367h2.664v7.028h1.487V3.802h2.662V2.435zM56.695 5.11v-.025A2.539 2.539 0 0 0 56 3.275a3.38 3.38 0 0 0-2.423-.84h-3.743v8.395h1.476V7.903h1.847l2.063 2.927h1.751l-2.266-3.179a2.52 2.52 0 0 0 1.99-2.542zM51.31 6.596V3.778h2.147c1.091 0 1.739.492 1.739 1.39v.025c0 .852-.672 1.404-1.727 1.404zM59.986 7.256h4.21V5.937h-4.21V3.754h4.749V2.435H58.51v8.395h6.285V9.511h-4.809V7.256zM68.026 7.903h1.847l2.063 2.927h1.751l-2.268-3.179a2.52 2.52 0 0 0 1.992-2.542v-.024a2.539 2.539 0 0 0-.696-1.81 3.38 3.38 0 0 0-2.422-.84H66.55v8.395h1.476zm0-4.125h2.146c1.092 0 1.74.492 1.74 1.39v.025c0 .852-.672 1.404-1.727 1.404h-2.16zM78.957 1.739 77.601 0l-1.308.576 1.524 1.163h1.14zM76.702 9.511V7.256h4.21V5.937h-4.21V3.754h4.749V2.435h-6.225v8.395h6.285V9.511h-4.809zM1.968 13.83H0v5.422h.403V17.23h1.464c1.131 0 2.115-.588 2.115-1.728v-.015c0-1.046-.82-1.658-2.014-1.658zm1.611 1.696c0 .805-.681 1.332-1.688 1.332H.403v-2.657h1.534c.976 0 1.642.45 1.642 1.309zM5.581 16.703h3.107v-.372H5.581v-2.13h3.456v-.372H5.179v5.423h3.897v-.371H5.581v-2.178zM14.587 15.386v-.015a1.43 1.43 0 0 0-.41-1.007 2.136 2.136 0 0 0-1.527-.535h-2.278v5.423h.403v-2.246h1.775l1.728 2.246h.51L13 16.936c.914-.124 1.588-.644 1.588-1.55zm-3.812 1.256v-2.44h1.852c.984 0 1.557.456 1.557 1.184v.016c0 .783-.674 1.24-1.58 1.24zM17.828 16.34c-1.286-.264-1.58-.613-1.58-1.186v-.016c0-.565.527-1.022 1.325-1.022a2.335 2.335 0 0 1 1.619.611l.256-.317a2.704 2.704 0 0 0-1.86-.658 1.57 1.57 0 0 0-1.743 1.425v.016c0 .821.527 1.262 1.829 1.526 1.231.248 1.534.581 1.534 1.155v.015c0 .62-.558 1.077-1.372 1.077a2.635 2.635 0 0 1-1.945-.806l-.263.302a3.088 3.088 0 0 0 2.185.868c1.046 0 1.797-.605 1.797-1.48v-.015c0-.79-.526-1.24-1.782-1.495zM23.433 13.736a2.73 2.73 0 0 0-2.735 2.804v.016a2.728 2.728 0 1 0 5.455-.016v-.015a2.704 2.704 0 0 0-2.72-2.79zm2.301 2.82a2.321 2.321 0 0 1-2.3 2.425 2.346 2.346 0 0 1-2.317-2.44v-.016a2.321 2.321 0 0 1 2.3-2.425 2.348 2.348 0 0 1 2.317 2.44zM31.649 18.547l-3.742-4.718h-.379v5.423h.387v-4.819l3.819 4.819h.303v-5.423h-.388v4.718zM35.712 13.79l-2.526 5.462h.419l.69-1.518h3.199l.69 1.518h.442L36.1 13.79zm-1.247 3.58 1.434-3.139 1.425 3.138zM40.179 13.829h-.403v5.423h3.587v-.371h-3.184v-5.052zM46.513 14.201h1.89v5.051h.403v-5.051h1.89v-.372h-4.183v.372zM56.138 15.386v-.015a1.43 1.43 0 0 0-.41-1.007 2.136 2.136 0 0 0-1.527-.535h-2.277v5.423h.402v-2.246H54.1l1.728 2.246h.511l-1.79-2.316c.915-.124 1.59-.644 1.59-1.55zm-3.812 1.256v-2.44h1.852c.984 0 1.557.456 1.557 1.184v.016c0 .783-.675 1.24-1.58 1.24zM59.589 13.79l-2.526 5.462h.418l.69-1.518h3.2l.69 1.518h.441l-2.526-5.462zm-1.248 3.58 1.434-3.139L61.2 17.37zM63.707 13.829h.403v5.423h-.403zM69.898 18.547l-3.741-4.718h-.38v5.423h.387v-4.819l3.82 4.819h.302v-5.423h-.388v4.718zM72.304 16.703h3.106v-.372h-3.106v-2.13h3.456v-.372h-3.858v5.423h3.896v-.371h-3.494v-2.178zM81.31 15.386v-.015a1.43 1.43 0 0 0-.41-1.007 2.136 2.136 0 0 0-1.526-.535h-2.279v5.423h.403v-2.246h1.774L81 19.252h.511l-1.79-2.316c.915-.124 1.589-.644 1.589-1.55zm-3.812 1.256v-2.44h1.852c.984 0 1.557.456 1.557 1.184v.016c0 .783-.674 1.24-1.58 1.24z"/></svg>