<svg id="Livello_1" data-name="Livello 1" xmlns="http://www.w3.org/2000/svg" viewBox="0 0 77.875 67.04797"><title>ff_logo</title><polygon points="36.024 60.099 44.209 60.099 44.209 57.535 36.024 57.535 36.024 53.29 45.257 53.29 45.257 50.726 33.154 50.726 33.154 67.048 45.374 67.048 45.374 64.484 36.024 64.484 36.024 60.099"/><polygon points="0 53.384 5.179 53.384 5.179 67.048 8.071 67.048 8.071 53.384 13.246 53.384 13.246 50.726 0 50.726 0 53.384"/><path d="M1111.626,869.925h-.001v-.047a4.9355,4.9355,0,0,0-1.35107-3.519,6.57152,6.57152,0,0,0-4.71094-1.633h-7.27808v16.322h2.87012v-5.69h3.59094l4.01111,5.69h3.40491l-4.406-6.18A4.89988,4.89988,0,0,0,1111.626,869.925Zm-10.471,2.891v-5.479h4.17505c2.11987,0,3.37988.957,3.37988,2.703v.048c0,1.657-1.30591,2.73-3.35693,2.73Z" transform="translate(-1082 -814)"/><polygon points="70.273 45.992 68.653 47.011 70.533 49.371 72.909 49.373 70.273 45.992"/><polygon points="68.525 60.099 76.71 60.099 76.71 57.535 68.525 57.535 68.525 53.29 77.758 53.29 77.758 50.726 65.655 50.726 65.655 67.048 77.875 67.048 77.875 64.484 68.525 64.484 68.525 60.099"/><polygon points="56.669 15.684 38.938 0 21.206 15.684 0 0 0 45.684 24.546 45.684 24.546 40.506 5.178 40.506 5.178 11.417 21.303 22.842 38.938 7.254 56.572 22.842 72.697 11.417 72.697 40.506 53.329 40.506 53.329 45.684 77.875 45.684 77.875 0 56.669 15.684"/><path d="M1144.126,869.925v-.047a4.937,4.937,0,0,0-1.353-3.519,6.57178,6.57178,0,0,0-4.709-1.633H1130.786v16.322h2.87v-5.69h3.59106l4.011,5.69h3.405l-4.41016-6.18A4.89989,4.89989,0,0,0,1144.126,869.925Zm-10.47193,2.893.002-5.48h4.173c2.123,0,3.38293.956,3.38293,2.702v.048c0,1.657-1.30688,2.73-3.35791,2.73Z" transform="translate(-1082 -814)"/><polygon points="49.338 45.621 49.338 28.237 45.377 28.237 38.936 38.243 32.498 28.237 28.537 28.237 28.537 45.621 32.195 45.621 32.195 34.283 38.818 44.203 38.936 44.203 45.619 34.225 45.619 45.621 49.338 45.621"/></svg>