<svg id="Livello_1" data-name="Livello 1" xmlns="http://www.w3.org/2000/svg" viewBox="0 0 31.98037 31.98999"><title>icon07</title><path d="M1115.56006,510.69a16.01038,16.01038,0,0,0-8.80005-8.8,16.02048,16.02048,0,0,0-12.02,0,16.01038,16.01038,0,0,0-8.80005,8.8,16.16322,16.16322,0,0,0-.03,12.05,15.6834,15.6834,0,0,0,3.53,5.3,15.452,15.452,0,0,0,5.27,3.49,16.04864,16.04864,0,0,0,12.08008,0,15.452,15.452,0,0,0,5.27-3.49,15.6834,15.6834,0,0,0,3.53-5.3,16.16322,16.16322,0,0,0-.03-12.05ZM1110.37,526.34a13.556,13.556,0,1,1,4-9.63A13.1161,13.1161,0,0,1,1110.37,526.34Z" transform="translate(-1084.75982 -500.71997)"/><polygon points="21.257 8.904 15.99 14.171 10.724 8.904 8.904 10.724 14.17 15.991 8.904 21.257 10.724 23.077 15.99 17.811 21.257 23.077 23.077 21.257 17.81 15.991 23.077 10.724 21.257 8.904"/></svg>