<svg id="Livello_1" data-name="Livello 1" xmlns="http://www.w3.org/2000/svg" viewBox="0 0 201.97501 147.86577"><title>icon02_fill</title><path d="M1337.48608,714.80243c-2.98254-7.65668-3.13195-7.83075-3.61242-9.46008-2.48279-8.4198-3.52332-20.82862,2.86242-38.28992a3.08921,3.08921,0,0,0-1.22912-3.72919,3.13539,3.13539,0,0,0-4.17322,1.49863q-.05346.11325-.09766.23056a83.14881,83.14881,0,0,0-3,10.83331c-1.34216,6.55286-3.58435,18.16266.33338,31.5.38659,1.31616.71875,2.25934,1.41662,4.16669,5.1941,14.19476,8.549,21.39239,11.08948,27.24542a240.36068,240.36068,0,0,1-105.88171.03882c2.5426-5.86,5.90075-13.05817,11.10632-27.28424.69788-1.90735,1.03-2.85053,1.41663-4.16669,3.91772-13.33734,1.67553-24.94714.33337-31.5a83.14723,83.14723,0,0,0-3-10.83331,3.1354,3.1354,0,0,0-4.04028-1.82687q-.1172.04422-.23059.09768a3.08922,3.08922,0,0,0-1.22913,3.72919c6.38574,17.4613,5.34522,29.87012,2.86243,38.28992-.48047,1.62933-.62989,1.8034-3.61243,9.46008-7.15332,18.3634-10.73,27.5451-12.13806,32.40387-1.87952,6.48553-6.78735,24.1178-3.11194,45.59613,0,.00012.52551,2.86255,4.25,16a3.85954,3.85954,0,0,0,.13233.37939,3.7773,3.7773,0,0,0,.34118.62354,2.90029,2.90029,0,0,0,3.16712.88769,2.43662,2.43662,0,0,0,1.4447-2.0877,1.924,1.924,0,0,0-.10755-.63849,103.37071,103.37071,0,0,1-3.59961-15.10541,101.47505,101.47505,0,0,1-.44433-32.72394,72.5433,72.5433,0,0,1,20.69739,5.56238c19.90637,8.70148,30.82055,24.31708,35.723,32.9129v9.48426a2.79145,2.79145,0,0,0,2.79138,2.79162h.20862a2.79148,2.79148,0,0,0,2.7915-2.7915v-9.46149c4.5835-7.69794,13.49109-20.21509,28.93762-29.08331a79.428,79.428,0,0,1,27.6366-9.61011,101.37945,101.37945,0,0,1-.41223,32.91913,103.36943,103.36943,0,0,1-3.59961,15.10541,1.9242,1.9242,0,0,0-.10754.63849,2.43661,2.43661,0,0,0,1.4447,2.0877,2.90031,2.90031,0,0,0,3.16711-.88769,3.77661,3.77661,0,0,0,.34119-.62354,3.85687,3.85687,0,0,0,.13232-.37939c3.72449-13.13745,4.25-15.99988,4.25-16,3.67542-21.47833-1.23242-39.1106-3.11193-45.59613C1348.21606,742.34753,1344.6394,733.16583,1337.48608,714.80243Zm-25.43591,53.33331a80.41157,80.41157,0,0,0-21.96875,21.91669,2.83712,2.83712,0,0,1-2.15625.9375,2.807,2.807,0,0,1-1.95837-.9375,78.57649,78.57649,0,0,0-56.308-34.74945c.50965-2.29016,1.12842-4.62,1.87989-6.976.529-1.65864,1.0769-3.18354,1.66247-4.68891a221.83886,221.83886,0,0,0,109.76819-.298c.62964,1.60229,1.21436,3.21893,1.7782,4.98688.746,2.33862,1.36072,4.6513,1.868,6.92517A80.759,80.759,0,0,0,1312.05017,768.13574Z" transform="translate(-1187 -663.0229)"/><ellipse cx="101.05016" cy="61.15449" rx="3.08325" ry="3.625"/><path d="M1346.69519,672.99005l-1.9082-.59765c.60351-1.92823,1.30273-3.85352,2.07812-5.72315l1.84766.7666C1347.95984,669.24982,1347.28113,671.11847,1346.69519,672.99005Z" transform="translate(-1187 -663.0229)"/><path d="M1365.04382,791.25714l-1.97656-.30859q.1084-.6958.209-1.40723a95.34748,95.34748,0,0,0,.88574-10.6416l2,.05469a97.51145,97.51145,0,0,1-.90528,10.86523Q1365.15417,790.54621,1365.04382,791.25714Zm-1.30664-24.45019c-.19433-1.97559-.45312-3.96973-.76953-5.92872-.33105-2.04785-.71777-4.01269-1.18066-6.00585l1.94726-.45313c.47364,2.03809.86914,4.0459,1.208,6.13965.32324,2,.58691,4.03613.78516,6.05273Zm-5.3916-23.55079c-1.25293-3.583-2.71875-7.39257-4.27051-11.42578l1.86719-.71875c1.55664,4.04883,3.02734,7.87207,4.292,11.48438Zm-8.667-22.8291c-1.5166-3.91992-1.72266-4.42187-1.73535-4.4541-.33789-.80566-.65137-1.54492-.94434-2.23535-.75879-1.78711-1.35742-3.19824-1.89844-4.64355l1.873-.70118c.52539,1.40528,1.11719,2.79883,1.86621,4.56348.29395.69336.60938,1.43555.94824,2.24609.00684.01661.18555.44629,1.75586,4.502Zm-7.40234-23.45605c-.2461-2.23535-.29493-3.9624-.32129-4.89014q-.022-.78809-.02149-1.564a57.50254,57.50254,0,0,1,.31543-5.97168l1.98828.209a55.61234,55.61234,0,0,0-.30371,5.7627q0,.7478.02149,1.50732c.02539.89941.07226,2.57373.30957,4.728Z" transform="translate(-1187 -663.0229)"/><path d="M1360.48035,809.14l-1.88282-.67578c.66895-1.8623,1.28516-3.76172,1.832-5.64551l1.91992.55665C1361.79187,805.29913,1361.163,807.23859,1360.48035,809.14Z" transform="translate(-1187 -663.0229)"/><polygon points="201.975 41.654 178.175 41.654 186.05 33.779 182.6 30.339 168.85 44.089 172.3 47.539 182.869 58.119 186.32 54.669 178.18 46.529 201.975 46.529 201.975 41.654"/><path d="M1229.27917,672.98956c-.58105-1.85791-1.25976-3.727-2.0166-5.5542l1.84766-.76562c.7793,1.88281,1.47852,3.8081,2.07715,5.72314Z" transform="translate(-1187 -663.0229)"/><path d="M1210.9325,791.259q-.1128-.71192-.21485-1.43945a97.45063,97.45063,0,0,1-.90527-10.86523l2-.05469a95.26926,95.26926,0,0,0,.88574,10.64062q.09961.71191.209,1.40625Zm1.30468-24.45215-1.99023-.19531c.19824-2.0166.46191-4.05273.78515-6.05176.33887-2.09472.73438-4.10253,1.208-6.14062l1.94727.45312c-.46289,1.99317-.84961,3.958-1.18067,6.00684-.3164,1.95807-.57519,3.95221-.76953,5.9278Zm5.39063-23.5498-1.88672-.66211c1.27832-3.65039,2.74219-7.45508,4.291-11.4834l1.86719.71875c-1.54394,4.01276-3.002,7.80371-4.27148,11.42682Zm8.66894-22.83008-1.86523-.72265c1.5918-4.11133,1.7539-4.5,1.7539-4.5.33985-.8125.65528-1.55469.94922-2.248.749-1.76465,1.34082-3.1582,1.86621-4.56348l1.87305.70117c-.541,1.44532-1.13965,2.85645-1.89844,4.64356-.293.69043-.60644,1.42969-.94531,2.23828-.00976.02545-.21289.52155-1.7334,4.45123Zm7.40137-23.45593-1.98828-.21875c.2373-2.1543.28418-3.82861.30957-4.728q.022-.76318.02148-1.51416a55.51047,55.51047,0,0,0-.30371-5.75586l1.98828-.209a57.36771,57.36771,0,0,1,.31543,5.96484q0,.77856-.02148,1.5708C1233.993,693.00861,1233.94421,694.73566,1233.69812,696.97107Z" transform="translate(-1187 -663.0229)"/><path d="M1215.495,809.14c-.68067-1.89453-1.31055-3.834-1.87012-5.76464l1.91992-.55665c.54883,1.88965,1.166,3.78907,1.833,5.64551Z" transform="translate(-1187 -663.0229)"/><polygon points="0 41.654 23.8 41.654 15.925 33.779 19.375 30.339 33.125 44.089 29.675 47.539 19.105 58.119 15.655 54.669 23.795 46.529 0 46.529 0 41.654"/></svg>