<svg id="Livello_1" data-name="Livello 1" xmlns="http://www.w3.org/2000/svg" viewBox="0 0 710.46582 710.46588"><title>icon05_fill</title><path d="M1872.45093-1039.28833a354.02511,354.02511,0,0,0-76.124-112.91113,354.03014,354.03014,0,0,0-112.91015-76.12354,353.02438,353.02438,0,0,0-138.27735-27.92138,353.02436,353.02436,0,0,0-138.27734,27.92138,354.03428,354.03428,0,0,0-112.91016,76.124,354.01475,354.01475,0,0,0-76.123,112.91064A353.02279,353.02279,0,0,0,1189.907-901.01141a353.024,353.024,0,0,0,27.92188,138.27685,354.02008,354.02008,0,0,0,76.123,112.91065,354.02482,354.02482,0,0,0,112.91016,76.12353A353.01608,353.01608,0,0,0,1545.1394-545.7785a353.01609,353.01609,0,0,0,138.27735-27.92188,354.02905,354.02905,0,0,0,112.91113-76.12353,354.03073,354.03073,0,0,0,76.123-112.91065,353.02421,353.02421,0,0,0,27.92187-138.27685A353.023,353.023,0,0,0,1872.45093-1039.28833ZM1545.1394-573.7785c-180.43652,0-327.23242-146.7959-327.23242-327.23291s146.7959-327.233,327.23242-327.233c180.4375,0,327.2334,146.79589,327.2334,327.233S1725.5769-573.7785,1545.1394-573.7785Z" transform="translate(-1189.90698 1256.24438)"/><polygon points="322.797 438.13 212.502 327.835 190.897 349.44 301.192 459.735 301.192 459.735 322.797 481.34 344.402 459.735 553.407 250.731 531.802 229.126 322.797 438.13"/></svg>