<svg id="Livello_1" data-name="Livello 1" xmlns="http://www.w3.org/2000/svg" viewBox="0 0 632.2925 593.06143"><title>icon04_fill</title><polygon points="522.911 349.592 316.212 556.292 109.512 349.592 72.79 349.592 316.212 593.061 559.681 349.592 522.911 349.592"/><path d="M-1184.40283,455.57788c-21.51953-59.57556-9.56275-128.85095,35.28955-176.15649,61.40381-64.7627,167.19189-69.59717,235.82031-10.77686l8.46582,7.25586,8.46094-7.26172C-830.20508,211.854-729.4624,213.751-667.01465,272.959c49.61621,47.0434,64.05036,120.14008,41.63934,182.6189h27.6673a199.97273,199.97273,0,0,0,8.7168-69.08911c-2.47363-50.95557-23.83008-97.9751-60.13477-132.397-34.95215-33.14014-81.209-51.96875-130.249-53.01807a198.83322,198.83322,0,0,0-125.46191,40.96582,198.30409,198.30409,0,0,0-130.7461-40.64209c-50.95556,2.47363-97.9751,23.83008-132.39746,60.13477-33.14014,34.95215-51.96875,81.209-53.01807,130.249a199.82376,199.82376,0,0,0,9.00293,63.79663Z" transform="translate(1221.04456 -201.02744)"/><polygon points="296.68 443.826 203.035 313.473 0 313.473 0 290.473 215.482 290.473 289.616 393.668 372.269 165.19 437.248 290.473 632.293 290.473 632.293 313.473 422.558 313.473 376.182 224.058 296.68 443.826"/></svg>