<svg id="Livello_1" data-name="Livello 1" xmlns="http://www.w3.org/2000/svg" viewBox="0 0 495.27772 510.11377"><title>icon01</title><path d="M3169.11621-726.51874a229.61171,229.61171,0,0,1-81.5-7,227.86094,227.86094,0,0,1-49.8374-20.16668,396.7109,396.7109,0,0,1-81.3833,14.57525c-22.40381,1.619-44.4502,3.06354-73.0293-2.15857a245.65755,245.65755,0,0,1-67.75-23.25c0-.00006-33.10547-16.54608-71.75-48.5-4.78174-3.84814-8.6626-7.10657-11.25049-9.3078-1.16552-.51855-22.21582-9.884-23.39013-10.40643-.01465-.00653-2.59473-1.15424-2.60938-1.16077-.001-.04657-.08545-3.9516-.08642-3.99817-.023-1.05645-.39063-18.06042-.41358-19.12683q37.83326-142.66662,75.667-285.33331l131.333-59.66675,40.0835,51.33338a13.56118,13.56118,0,0,1,2.6665,3.66662,9.00038,9.00038,0,0,1,.917,2.5,8.39632,8.39632,0,0,1-1,5.54175,8.51576,8.51576,0,0,1-1.01074,1.45825c-26.29687,30.67786-31.6665,36.03516-42.40625,46.75a6.90538,6.90538,0,0,1-2.75,1.75c-2.92041.957-5.78223-.50769-6.5-.875-1.36377-.69812-1.436-1.09424-4.75-4.25-3.4292-3.26562-3.63379-3.10974-5.5-5.125-2.14258-2.31372-1.89209-2.53943-3.75-4.375-2.14746-2.12158-3.44433-3.44031-5.625-4a9.48219,9.48219,0,0,0-4.125-.0625,10.06527,10.06527,0,0,0-3.625,1.5625c-2.01807,1.3169-2.31445,2.34668-4.0625,3.9375a17.6748,17.6748,0,0,1-4.6875,2.9375c-4.30029,2.08338-8.25488,2.3064-12.125,2.5a45.60661,45.60661,0,0,1-10-.25,24.77658,24.77658,0,0,0-4.75-.25c-2.9751.12232-4.0293.70056-4.583,1.08338a6.87,6.87,0,0,0-2.08349,2.5,7.99413,7.99413,0,0,0-1.16651,3.91662,8.07856,8.07856,0,0,0,1,3.83338c.73145,1.50061,1.22608,1.70275,3.25,4.16662a52.176,52.176,0,0,1,3.91651,5.5,14.84433,14.84433,0,0,1,1.33349,2.58338,13.64647,13.64647,0,0,1,.833,3.41662l7.875,126.37506c.08545,1.16876.16455,2.80207.125,4.75-.02881,1.42316-.19287,6.41345-3,16.375-2.854,10.1294-4.86377,12.70276-5.75,13.75a22.75521,22.75521,0,0,1-4.4165,4,8.63454,8.63454,0,0,0-2.66651,11.58332,8.66029,8.66029,0,0,0,12.458,2.04168,46.35869,46.35869,0,0,0,6.5-6.25c7.7793-9.09973,10.05225-18.97955,11.1875-24.1875.3042-1.39416.5415-2.73614.73975-4.04284l1.28125-.81134a103.71346,103.71346,0,0,1,52-23,100.7877,100.7877,0,0,1,42.49072,3.36511c8.331,2.51977,26.42041,8.24371,41.84228,25.30157a84.89927,84.89927,0,0,1,17.667,30.66663c1.21972,5.58667,6.83691,8.59674,11.25,7.10419,3.56787-1.20667,6.062-5.2594,5.5-9.6875a102.14465,102.14465,0,0,0-19.75-36.75c-.82129-.97254-1.65332-1.90674-2.48926-2.82349,4.49756-6.35285,30.32764-40.49091,76.65576-43.84314,41.33252-2.99072,69.52051,20.65979,74.875,25.33331a9.35087,9.35087,0,0,0,12.375-.375,9.40636,9.40636,0,0,0-.9165-13.61407c-5.77735-5.02594-40.00293-33.8147-90-29.01093-51.72119,4.96942-80.37158,42.04877-85.87012,49.68372-14.39844-11.03656-28.60986-15.70044-35.96338-18.01709a117.58267,117.58267,0,0,0-64-2,111.8816,111.8816,0,0,0-35.6665,16.66669l-.396.36938c-.0249-.53162-.04834-.94263-.0625-1.2027-3.5293-64.773-5.29394-97.15948-7.333-127.16668a9.93954,9.93954,0,0,0-1.12011-4.09192,9.19853,9.19853,0,0,0-.79688-1.24146,47.32033,47.32033,0,0,0,13-2.125,47.30538,47.30538,0,0,0,11.125-5.125l13.875,12.5a21.85922,21.85922,0,0,0,15.5,4,21.82744,21.82744,0,0,0,13.75-7.625l42.292-47.29162a27.15975,27.15975,0,0,0,3.66651-5.66663,24.71754,24.71754,0,0,0,2.6665-12.75,24.01847,24.01847,0,0,0-5.1665-13.08337l-46.521-60.27088a5.293,5.293,0,0,0-1.3125-1.0625c-.29-.16528-1.38623-.751-4.25-.625a19.82071,19.82071,0,0,0-4.125.625l-138.125,63.40625a18.40357,18.40357,0,0,0-6.32959,5.94763,18.198,18.198,0,0,0-2.42041,5.64612l-76.4165,285.33338v17.5a30.27192,30.27192,0,0,0,.6665,9.41668,23.73432,23.73432,0,0,0,4.5,10.08332c1.46094,1.75982,2.85742,2.70843,12,6.83337,3.9707,1.61883,9.7627,4.05566,16.88379,7.33514.001.00049,28.52979,21.98889,59.44971,41.83149,20.38232,13.08038,30.57373,19.62054,46.1665,26.33337,4.24463,1.82721,24.55518,10.41418,53.75,15.58331,49.27686,8.72486,90.19385,1.75128,119.5-3.5,14.96436-2.68146,27.09375-5.65613,35-7.75a257.77364,257.77364,0,0,0,69.5,22,257.6086,257.6086,0,0,0,64.5,2.5,8.00024,8.00024,0,0,0,7.5-8.875A7.97928,7.97928,0,0,0,3169.11621-726.51874Z" transform="translate(-2688.33851 1220.16141)"/><path d="M2967.11621-787.01874c-14.01465,3.439-67.77832,14.87238-118.2876-15.74255a143.75913,143.75913,0,0,1-40.7124-37.25745c-2.93359-4.28564-8.66406-5.16717-12.25-2.5a8.67612,8.67612,0,0,0-2.4248,10.37573,163.60478,163.60478,0,0,0,73.73584,57.09491c48.374,18.57087,90.72021,8.0113,104.27246,4.02936a8.47315,8.47315,0,0,0,5.7915-10.625A8.454,8.454,0,0,0,2967.11621-787.01874Z" transform="translate(-2688.33851 1220.16141)"/><path d="M3176.61621-811.51874a73.90939,73.90939,0,0,1-31.6001-7.79785A73.14215,73.14215,0,0,1,3126.7832-832.352a7.81672,7.81672,0,0,0-9.33349-1.16669,7.90826,7.90826,0,0,0-2.3335,10.66669,89.1074,89.1074,0,0,0,22.8335,15.83331,89.91316,89.91316,0,0,0,38.1665,8.83332,6.86383,6.86383,0,0,0,7.5-6.66663A6.85266,6.85266,0,0,0,3176.61621-811.51874Z" transform="translate(-2688.33851 1220.16141)"/></svg>