<svg id="Livello_1" data-name="Livello 1" xmlns="http://www.w3.org/2000/svg" viewBox="0 0 44.38373 41.27268"><title>icon06_border</title><path d="M1225.39945,655.57822a4.17046,4.17046,0,0,0-.90527-2.68262,4.27565,4.27565,0,0,0-3.09473-1.51172H1207.6846l1.94141-9.10254a3.38006,3.38006,0,0,0-5.67187-3.46386l-12.1294,12.5664h-10.808v27.5957h33.62787a5.27282,5.27282,0,0,0,4.3789-3.1621l6.377-15.36426Zm-34.72882,21.40527h-7.65784V653.37222h7.65784Zm26.514-1.95215a3.29532,3.29532,0,0,1-2.6289,1.95215h-21.889V653.38388q6.36494-6.59033,12.7298-13.18066a1.33908,1.33908,0,0,1,2.37134.50793,3.07483,3.07483,0,0,1-.03156.85315c-.00934.05841-.01861.10669-.02533.13989l-2.49707,11.67969q8.07524-.00054,16.15039-.001a2.08027,2.08027,0,0,1,2.03516,2.15723l.001,4.51465Q1220.29248,667.54306,1217.1846,675.03134Z" transform="translate(-1181.0167 -637.70691)"/></svg>