<svg id="Livello_1" data-name="Livello 1" xmlns="http://www.w3.org/2000/svg" viewBox="0 0 179.41663 147.88874"><title>icon02</title><path d="M1223.43591,708.75c-2.98254-7.65668-3.13195-7.83075-3.61242-9.46008-2.48279-8.4198-3.52332-20.82862,2.86242-38.28992a3.08925,3.08925,0,0,0-1.22912-3.72919A3.13541,3.13541,0,0,0,1217.18591,659a83.1483,83.1483,0,0,0-3,10.83331c-1.34216,6.55286-3.58435,18.16266.33338,31.5.38659,1.31617.71875,2.25934,1.41662,4.16669,5.19409,14.19476,8.549,21.3924,11.08948,27.24542a240.36,240.36,0,0,1-105.88171.03882c2.5426-5.86005,5.90075-13.05817,11.10632-27.28424.69788-1.90735,1.03-2.85052,1.41663-4.16669,3.91772-13.33734,1.67553-24.94714.33337-31.5A83.14669,83.14669,0,0,0,1131,659a3.1354,3.1354,0,0,0-4.27087-1.72919A3.08926,3.08926,0,0,0,1125.5,661c6.38574,17.4613,5.34521,29.87012,2.86243,38.28992-.48047,1.62933-.62989,1.8034-3.61243,9.46008-7.15332,18.3634-10.73,27.5451-12.13806,32.40387-1.87952,6.48553-6.78736,24.1178-3.11194,45.59613,0,.00012.52551,2.86255,4.25,16a3.88533,3.88533,0,0,0,.13232.37939,3.77472,3.77472,0,0,0,.34119.62354,2.90035,2.90035,0,0,0,3.16712.8877,2.43655,2.43655,0,0,0,1.4447-2.08771,1.92588,1.92588,0,0,0-.10755-.63849,103.37479,103.37479,0,0,1-3.59961-15.10541,101.47626,101.47626,0,0,1-.44433-32.72394,72.5417,72.5417,0,0,1,20.69739,5.56238c19.90637,8.70148,30.82055,24.31708,35.723,32.9129v9.48432a2.7915,2.7915,0,0,0,2.7915,2.79162h.2085a2.7915,2.7915,0,0,0,2.7915-2.79162v-9.46137c4.5835-7.69793,13.49109-20.21508,28.93762-29.08331a79.4279,79.4279,0,0,1,27.6366-9.61011,101.37847,101.37847,0,0,1-.41223,32.91913,103.37479,103.37479,0,0,1-3.59961,15.10541,1.92565,1.92565,0,0,0-.10754.63849,2.43653,2.43653,0,0,0,1.4447,2.08771,2.90033,2.90033,0,0,0,3.16711-.8877,3.77472,3.77472,0,0,0,.34119-.62354,3.88227,3.88227,0,0,0,.13232-.37939c3.72449-13.13745,4.25-15.99988,4.25-16,3.67542-21.47833-1.23242-39.1106-3.11194-45.59613C1234.16589,736.2951,1230.58923,727.1134,1223.43591,708.75ZM1198,762.08331A80.41253,80.41253,0,0,0,1176.03125,784a2.83712,2.83712,0,0,1-2.15625.9375,2.80693,2.80693,0,0,1-1.95837-.9375,78.57649,78.57649,0,0,0-56.308-34.74945c.50965-2.29016,1.12842-4.62006,1.87989-6.976.529-1.65863,1.0769-3.18354,1.66247-4.68891a221.839,221.839,0,0,0,109.76819-.298c.62964,1.60229,1.21435,3.21893,1.7782,4.98688.746,2.33862,1.36072,4.6513,1.868,6.92517A80.75967,80.75967,0,0,0,1198,762.08331Z" transform="translate(-1084.375 -656.94761)"/><ellipse cx="89.625" cy="61.17739" rx="3.08325" ry="3.625"/><polygon points="33.125 44.112 19.375 30.362 15.925 33.802 23.8 41.677 0 41.677 0 46.552 23.795 46.552 15.655 54.692 19.105 58.142 29.675 47.562 33.125 44.112"/><polygon points="179.417 41.677 155.617 41.677 163.492 33.802 160.042 30.362 146.292 44.112 149.742 47.562 160.312 58.142 163.762 54.692 155.622 46.552 179.417 46.552 179.417 41.677"/></svg>