<svg id="Livello_1" data-name="Livello 1" xmlns="http://www.w3.org/2000/svg" viewBox="0 0 550.18387 510.15485"><defs><style>.cls-1{fill:red;}.cls-2{fill:#00dd0a;}</style></defs><title>icon01F</title><path class="cls-1" d="M-2592.28923-913.758l75.33337-284,143.33325-63.33332,46.66675,64v11.33332l-47,54.66668-10,3-11.66675-6.66668-14-11.66663-16,7.33331-21.66662,2,7.33337,13.66669,6.66663,127,.33337,12,24.66663-11,30.33337-9.66669,29-.33331,28,3.66663,23.66663,12,12.33337,8.33337,16-21.33337,26-18.66663,37.66663-11.66669h31l46,17.33332a154.3399,154.3399,0,0,1,40.3645,39.06787c23.59009,33.34234,27.2301,67.56122,29.33325,87.33337,1.09973,10.33808,2.3407,22.76178.12964,39.06732-1.866,13.76081-4.81409,35.50147-21.12964,55.266a89.841,89.841,0,0,1-32.43347,24.509l-47.26428,4.08978-46-7.66666-34.33338-12.66665-16.66662-5-40.33338,8-56,6.33331-47.66662-2-49-13.66666-35-15.33334-41.33338-26-23.33325-17-13.66675-11.66669-18-7-13.33325-11Z" transform="translate(2600.67067 1270.16602)"/><path class="cls-2" d="M-2321.893-837.02341c-14.01465,3.439-67.77832,14.87237-118.2876-15.74256a143.7594,143.7594,0,0,1-40.7124-37.25744c-2.93359-4.28565-8.66406-5.16718-12.25-2.5a8.67611,8.67611,0,0,0-2.4248,10.37573,163.60478,163.60478,0,0,0,73.73584,57.09491c48.374,18.57086,90.72021,8.01129,104.27246,4.02936a8.47315,8.47315,0,0,0,5.7915-10.625A8.454,8.454,0,0,0-2321.893-837.02341Z" transform="translate(2600.67067 1270.16602)"/><path class="cls-2" d="M-2162.226-882.35673a7.81671,7.81671,0,0,0-9.33349-1.16668,7.90824,7.90824,0,0,0-2.3335,10.66668,89.10715,89.10715,0,0,0,22.8335,15.83332,89.91312,89.91312,0,0,0,38.1665,8.83331,6.86382,6.86382,0,0,0,7.5-6.66663,6.85265,6.85265,0,0,0-7-6.66668,73.90928,73.90928,0,0,1-31.6001-7.79786A73.14189,73.14189,0,0,1-2162.226-882.35673Z" transform="translate(2600.67067 1270.16602)"/><path class="cls-2" d="M-2200.55947-1044.02341a119.81228,119.81228,0,0,0-59.47364,23.66858,138.56944,138.56944,0,0,0-26.39648,26.01513c-14.39844-11.03656-28.60986-15.70044-35.96338-18.01709a117.58278,117.58278,0,0,0-64-2,111.882,111.882,0,0,0-35.6665,16.66669l-.396.36938c-.0249-.53161-.04834-.94262-.0625-1.20269-3.5293-64.773-5.29394-97.15949-7.333-127.16669a9.93958,9.93958,0,0,0-1.12011-4.09192,9.19834,9.19834,0,0,0-.79688-1.24145,47.3211,47.3211,0,0,0,13-2.125,47.30579,47.30579,0,0,0,11.125-5.125l13.875,12.5a21.85933,21.85933,0,0,0,15.5,4,21.82753,21.82753,0,0,0,13.75-7.625l42.292-47.29157a27.15975,27.15975,0,0,0,3.66651-5.66663,24.71751,24.71751,0,0,0,2.6665-12.75,24.01847,24.01847,0,0,0-5.1665-13.08337l-46.521-60.27087a5.293,5.293,0,0,0-1.3125-1.0625c-.29-.16529-1.38623-.751-4.25-.625a19.82071,19.82071,0,0,0-4.125.625l-138.125,63.40625a18.40346,18.40346,0,0,0-6.32959,5.94763,18.19815,18.19815,0,0,0-2.42041,5.64612l-76.4165,285.33331v17.5a30.272,30.272,0,0,0,.6665,9.41669,23.73429,23.73429,0,0,0,4.5,10.08331c1.46094,1.75983,2.85742,2.70843,12,6.83337,3.9707,1.61884,9.7627,4.05567,16.88379,7.33515.001.00049,28.52979,21.98889,59.44971,41.83148,20.38232,13.08038,30.57373,19.62054,46.1665,26.33337,4.24463,1.82721,24.55518,10.41419,53.75,15.58332,49.27686,8.72485,90.19385,1.75128,119.5-3.5,14.96436-2.68146,27.09375-5.65613,35-7.75a299.69215,299.69215,0,0,0,69.5,22,189.08922,189.08922,0,0,0,40.81543,3.43744c8.6604-.25293,23.25733-1.31373,37.875-6.625a70.27986,70.27986,0,0,0,13.375-6.375,72.09458,72.09458,0,0,0,13.70825-11.25c5.46692-5.74781,12.42884-15.00733,18.00013-30,9.52221-25.625,9.19177-52.35926,8.66662-64-.96606-21.41657-3.42847-76.00226-42.5-120.5a139.90025,139.90025,0,0,0-17-16.5C-2117.18618-1020.942-2152.1177-1048.9824-2200.55947-1044.02341Zm133.52368,156.02075c1.01221,12.75879,5.06018,61.52087-15.16675,87.5a67.69983,67.69983,0,0,1-18.5,16.16669,57.91316,57.91316,0,0,1-21.5,6.75,172.94262,172.94262,0,0,1-32.5,2c-20.39612-.67176-35.49707-4.80066-46.69043-7.93744a243.52838,243.52838,0,0,1-49.8374-20.16669,396.71171,396.71171,0,0,1-81.3833,14.57526c-22.40381,1.619-44.4502,3.06353-73.0293-2.15857a245.65789,245.65789,0,0,1-67.75-23.25c0-.00006-33.10547-16.54609-71.75-48.5-4.78174-3.84815-8.6626-7.10657-11.25049-9.3078-1.16552-.51856-22.21582-9.884-23.39013-10.40644-.01465-.00653-2.59473-1.15423-2.60938-1.16076-.001-.04657-.08545-3.9516-.08642-3.99817-.023-1.05646-.39063-18.06043-.41358-19.12683q37.83326-142.66664,75.667-285.33326l131.333-59.66674,40.0835,51.33337a13.5611,13.5611,0,0,1,2.6665,3.66663,9.00026,9.00026,0,0,1,.917,2.5,8.39628,8.39628,0,0,1-1,5.54174,8.516,8.516,0,0,1-1.01074,1.45826c-26.29687,30.67785-31.6665,36.03509-42.40625,46.74994a6.90538,6.90538,0,0,1-2.75,1.75c-2.92041.957-5.78223-.5077-6.5-.875-1.36377-.69813-1.436-1.09424-4.75-4.25-3.4292-3.26563-3.63379-3.10975-5.5-5.125-2.14258-2.31373-1.89209-2.53943-3.75-4.37494-2.14746-2.12159-3.44433-3.44031-5.625-4a9.48219,9.48219,0,0,0-4.125-.0625,10.06535,10.06535,0,0,0-3.625,1.5625c-2.01807,1.31689-2.31445,2.34668-4.0625,3.93744a17.67506,17.67506,0,0,1-4.6875,2.9375c-4.30029,2.08337-8.25488,2.30639-12.125,2.5a45.60723,45.60723,0,0,1-10-.25,24.77475,24.77475,0,0,0-4.75-.25c-2.9751.12231-4.0293.70056-4.583,1.08337a6.87011,6.87011,0,0,0-2.08349,2.5,7.99414,7.99414,0,0,0-1.16651,3.91663,8.07852,8.07852,0,0,0,1,3.83337c.73145,1.50061,1.22608,1.70276,3.25,4.16663a52.17361,52.17361,0,0,1,3.91651,5.5,14.84426,14.84426,0,0,1,1.33349,2.58337,13.64653,13.64653,0,0,1,.833,3.41663l7.875,126.37506c.08545,1.16876.16455,2.80206.125,4.75-.02881,1.42315-.19287,6.41345-3,16.375-2.854,10.12939-4.86377,12.70275-5.75,13.75a22.75521,22.75521,0,0,1-4.4165,4,8.63452,8.63452,0,0,0-2.66651,11.58331,8.66029,8.66029,0,0,0,12.458,2.04169,46.35986,46.35986,0,0,0,6.5-6.25c7.7793-9.09974,10.05225-18.97956,11.1875-24.1875.3042-1.39417.54151-2.73615.73975-4.04285l1.28125-.81134a103.71355,103.71355,0,0,1,52-23,100.7877,100.7877,0,0,1,42.49072,3.36511c8.331,2.51978,26.42041,8.24371,41.84229,25.30158a84.89942,84.89942,0,0,1,17.667,30.66662c1.21972,5.58667,6.83691,8.59674,11.25,7.10419,3.56787-1.20667,6.062-5.2594,5.5-9.6875a102.14465,102.14465,0,0,0-19.75-36.75c-.82129-.97254-1.65332-1.90674-2.48926-2.82349,4.49756-6.35284,30.32764-40.4909,76.65576-43.84314,41.33252-2.99072,69.52051,20.65961,74.875,25.33326a144.47949,144.47949,0,0,1,39.64868,48.35418C-2070.25466-928.57627-2068.62942-908.0908-2067.03579-888.00266Z" transform="translate(2600.67067 1270.16602)"/></svg>