<svg xmlns="http://www.w3.org/2000/svg" viewBox="0 0 792 791"><defs><style>.cls-1{fill:#fff}</style></defs><g id="Livello_2" data-name="Livello 2"><path d="M0 0h792v791H0z"/><path class="cls-1" d="M81 557h117v36H81zM81 161h117v36H81z"/></g><g id="Livello_1" data-name="Livello 1"><path class="cls-1" d="M433.607 468.076a160.983 160.983 0 0 0 8.502 15.344c21.365 33.98 53.494 55.598 89.422 55.598 64.324 0 116.469-69.29 116.469-154.765s-52.145-154.765-116.469-154.765l-271.062.002C196.145 229.49 144 298.78 144 384.255S196.145 539.02 260.469 539.02c35.928 0 68.057-21.618 89.422-55.599a160.984 160.984 0 0 0 8.502-15.344z" transform="translate(0 -.02)"/><rect x="241.283" y="286.531" width="38.913" height="116.276" rx="5" ry="5"/><rect x="201.829" y="325.289" width="116.739" height="38.759" rx="5" ry="5"/><circle cx="533.586" cy="307.525" r="18.841"/><ellipse cx="533.13" cy="383.966" rx="18.916" ry="18.841"/><ellipse cx="572.043" cy="345.207" rx="18.916" ry="18.841"/><ellipse cx="495.298" cy="345.207" rx="18.916" ry="18.841"/><path class="cls-1" d="M81 161h36v432H81z"/><path class="cls-1" transform="rotate(-180 652.5 575.01)" d="M594 557.02h117v36H594z"/><path class="cls-1" transform="rotate(-180 652.5 179.01)" d="M594 161.02h117v36H594z"/><path class="cls-1" transform="rotate(-180 693 377.01)" d="M675 161.02h36v432h-36z"/></g></svg>