<svg id="Livello_1" data-name="Livello 1" xmlns="http://www.w3.org/2000/svg" viewBox="0 0 2499.8999 791.59998"><defs><style>.cls-1{fill:#fff;}</style></defs><title>GameDev&amp;amp;CodingFullLogoJB_V5</title><g id="Livello_2" data-name="Livello 2"><rect x="1707.90002" y="0.6" width="791.99988" height="790.99998"/></g><g id="Livello_1-2" data-name="Livello 1-2"><path class="cls-1" d="M2239.3999,230.1h-271.1c-64.3,0-116.5,69.3-116.5,154.8s52.2,154.8,116.5,154.8c35.9,0,68.1-21.6,89.4-55.6,3.1001-5,5.8999-10.1,8.5-15.3h75.19995c2.6001,5.2,5.3999,10.4,8.5,15.3,21.3999,34,53.5,55.6,89.3999,55.6,64.30005,0,116.5-69.3,116.5-154.8C2355.8999,299.4,2303.7,230.1,2239.3999,230.1ZM2026.4,359.6a4.99447,4.99447,0,0,1-4.9,5H1988v33.8a4.99447,4.99447,0,0,1-4.9,5h-29a4.99454,4.99454,0,0,1-5-4.9V364.6h-34.5a4.99455,4.99455,0,0,1-5-4.9V330.8a4.99447,4.99447,0,0,1,4.9-5h34.6V292a4.99447,4.99447,0,0,1,4.9-5h29a4.99455,4.99455,0,0,1,5,4.9v33.9h33.4a4.99454,4.99454,0,0,1,5,4.9v28.9Zm176.79993,5a18.85006,18.85006,0,1,1,18.8999-18.9A18.8638,18.8638,0,0,1,2203.2,364.6Zm37.8,38.8a18.85006,18.85006,0,1,1,18.8999-18.8h0A18.86366,18.86366,0,0,1,2241,403.4Zm.3999-76.4A18.8,18.8,0,1,1,2260.2,308.2h0a18.73625,18.73625,0,0,1-18.6001,18.8Zm38.5,37.6a18.85006,18.85006,0,1,1,18.8999-18.9,18.8638,18.8638,0,0,1-18.8999,18.9Z"/><polygon class="cls-1" points="1824.9 197.6 1905.9 197.6 1905.9 161.6 1824.9 161.6 1788.9 161.6 1788.9 197.6 1788.9 557.6 1788.9 593.6 1824.9 593.6 1905.9 593.6 1905.9 557.6 1824.9 557.6 1824.9 197.6"/><polygon class="cls-1" points="2382.9 161.6 2301.9 161.6 2301.9 197.6 2382.9 197.6 2382.9 557.6 2301.9 557.6 2301.9 593.6 2382.9 593.6 2418.9 593.6 2418.9 557.6 2418.9 197.6 2418.9 161.6 2382.9 161.6"/><path d="M0,143v-7.3C0,54.7,57.3,0,132.6,0c38.6,0,68.8,11.8,96.3,34L185.3,94.8c-13.8-12.2-29.4-21-49.3-21-30.2,0-52.7,24.5-52.7,64.2v4.6c0,42.8,22.6,65.7,52,65.7,11.1,0,17.2-1.9,22.2-4.6V171.6H120.8V113.5H233.9V244.6a166.85464,166.85464,0,0,1-101.3,33.6C58.5,278.3,0,227,0,143Z"/><path d="M421.6,85.2C405.2,68.8,380.7,60.7,344,60.7c-31.3,0-59.6,6.5-81,15.3l16.4,57.3c13-5.7,29.8-11.5,50.1-11.5,22.9,0,33.6,9.9,33.6,28.3v3.4c-9.2-4.2-26.8-7.6-42.8-7.6-42,0-69.9,21.8-69.9,65.4V214c0,41.3,25.2,63.4,60.4,63.4,22.5,0,39.4-9.6,52-24.5v19.9H443V149.1C443,120.4,436.5,100.2,421.6,85.2ZM363.5,200.7c0,18.4-9.2,28.3-21.4,28.3-9.6,0-16.8-8-16.8-20.3v-2.3c0-12.6,7.6-22.9,21.8-22.9a42.249,42.249,0,0,1,16.4,3.4Z"/><path d="M463.6,64.2h79.9V90.6c11.5-16.1,29.8-31.3,55.8-31.3,26.4,0,44.3,12.2,53.9,32.1,14.5-18,33.3-32.1,61.9-32.1,39.4,0,62.7,26.4,62.7,67.7V273h-80.3V151.7c0-13.8-7.6-21.8-18-21.8s-19.1,8-19.1,21.8V272.9h-79.9V151.7c0-13.8-8-21.8-18-21.8-10.3,0-19.1,8-19.1,21.8V272.9h-79.9L463.6,64.2Z"/><path d="M986.9,170.9c0-65.4-32.5-111.6-96.7-111.6-57,0-97.5,43.6-97.5,107.4v5C792.7,237.8,834.4,278,897,278c38.2,0,64.6-14.9,85.2-35.9l-36.7-43.6c-12.2,11.5-25.6,18.7-41.3,18.7-17.2,0-30.2-8.4-35.5-26H986.8V170.9ZM867.7,151.8c2.3-23.3,10.7-34,22.5-34,13,0,22.2,10.7,23.7,34Z"/><path d="M1095.1,5.3h-89.8V272.9h87.9c95.9,0,144.1-52.7,144.1-132.3v-5.7C1237.30005,55.4,1189.9,5.3,1095.1,5.3Zm58.5,136.5c0,42-22.2,58.1-56.2,58.1h-9.6V78.4h9.6c34,0,56.2,15.7,56.2,58.1Z"/><path d="M1444.80005,170.9c0-65.4-32.5-111.6-96.69995-111.6-56.9,0-97.5,43.6-97.5,107.4v5c0,66.1,41.69995,106.3,104.3,106.3,38.2,0,64.6-14.9,85.2-35.9l-36.7-43.6c-12.19995,11.5-25.6,18.7-41.3,18.7-17.2,0-30.2-8.4-35.6-26h118.1V170.9ZM1325.6,151.8c2.3-23.3,10.69995-34,22.5-34,13,0,22.19995,10.7,23.69995,34Z"/><path d="M1441,64.2h83.30005l27.5,106.3,27.5-106.3H1661.5l-72.19995,210.2H1513.6001Z"/><path d="M294.3,608.9l-52.4-21c-6.1,12.6-11.9,25.6-18.4,35.9l-22.6-26c27.9-16.8,45.5-40.5,45.5-70.3v-.8c0-39.4-29.8-68-78-68-48.9,0-80.7,32.1-80.7,71.1v.8c0,18.7,5,33.6,18,53.1C70.5,602,55.2,627.3,55.2,658.6v1.2c0,49.3,39.8,76.8,92.9,76.8,26.8,0,49.7-7.3,70.3-21l19.5,21.8,53.5-36.7-27.5-31C275.6,652.5,285.1,632.6,294.3,608.9ZM160.2,677.7c-14.9,0-24.9-9.2-24.9-23.3v-1.2c0-8,3.4-16.1,10.7-22.9l34.8,41.3C174.3,675.4,166.7,677.7,160.2,677.7Zm23.7-147.2c0,11.1-5.4,21.8-18.4,30.6-7.3-10.3-11.1-18.7-11.1-29v-.4c0-11.5,5.7-19.1,14.9-19.1,8.8,0,14.5,6.9,14.5,17.6v.3h.1Z"/><path d="M377.3,601.6v-6.5c0-83.3,57.3-136.5,127.3-136.5,45.5,0,77.2,19.9,98.6,50.5l-55.8,51.2c-8.4-13.4-20.6-25.2-41.3-25.2-26,0-44.7,22.2-44.7,61.5v1.5c0,42.4,20.3,62.3,45.1,62.3,21.4,0,33.6-12.2,42.4-26l55.8,49.3c-19.5,28.7-51.2,53.1-103.2,53.1C434.6,736.9,377.3,686.5,377.3,601.6Z"/><path d="M711.3,517.9c-61.5,0-104.7,45.1-104.7,106.3v6.9c0,61.2,42.8,105.5,104,105.5,61.5,0,104.7-45.1,104.7-106.3v-6.9C815.3,562.3,772.5,517.9,711.3,517.9Zm26.4,111.6c0,24.1-10.3,39.4-26.4,39.4-16,0-26.8-15.3-26.8-39.8v-4.6c0-23.7,9.9-39,26-39s27.1,15.3,27.1,39.4v4.6h.1Z"/><path d="M958.6,454.5v92.1c-12.6-16.1-27.9-28.7-55.4-28.7-41.3,0-75.7,35.9-75.7,106.3v7.6c0,68.8,34,104.7,76.4,104.7,27.5,0,41.7-13.8,54.7-29.8v24.8h80.3v-277H958.6Zm1.6,175.8c0,22.6-10.7,39-27.1,39-16.8,0-27.1-16.4-27.1-39v-6.1c0-22.5,10.3-39,27.1-39,16.4,0,27.1,16.4,27.1,39Z"/><path d="M1061.4,522.9V731.6h79.9V522.9Zm-1.1-68.4v54.7h82.6V454.5Z"/><path d="M1164.30005,522.9h79.9V550c11.8-16.1,29.8-32.1,57-32.1,38.6,0,61.5,26.4,61.5,67.7v146H1282.4V611.2c0-14.1-8-22.6-18.3-22.6-10.7,0-19.9,8.4-19.9,22.6V731.6h-79.9l.00012-208.7Z"/><path d="M1510.2,522.9v22.2c-13.80005-15.7-29.4-27.1-56.19995-27.1-40.5,0-74.9,32.9-74.9,95.9v5c0,62.3,33.6,94,78.4,94,25.6,0,42.4-13.4,54.30005-27.9v8c0,25.2-14.5,39.8-42.4,39.8a145.78454,145.78454,0,0,1-66.9-16.8l-21,53.9c29.4,13,60,20.3,98.19995,20.3,40.9,0,68-9.9,85.6-27.5,17.2-17.2,25.2-42,25.2-77.6V522.9Zm1.5,94c0,20.3-9.9,34.8-27.1,34.8s-27.1-14.1-27.1-34.4v-1.9c0-20.6,9.6-35.2,27.1-35.2,16.8,0,27.1,14.5,27.1,34.8Z"/></g></svg>